<?xml version="1.0" encoding="UTF-8"?>
<!DOCTYPE svg PUBLIC "-//W3C//DTD SVG 1.1//EN" "http://www.w3.org/Graphics/SVG/1.1/DTD/svg11.dtd">
<!-- Creator: CorelDRAW 2020 (64-Bit) -->
<svg xmlns="http://www.w3.org/2000/svg" xml:space="preserve" width="42.3332mm" height="42.3332mm" version="1.1" style="shape-rendering:geometricPrecision; text-rendering:geometricPrecision; image-rendering:optimizeQuality; fill-rule:evenodd; clip-rule:evenodd"
viewBox="0 0 4233.32 4233.32"
 xmlns:xlink="http://www.w3.org/1999/xlink"
 xmlns:xodm="http://www.corel.com/coreldraw/odm/2003">
 <defs>
  <style type="text/css">
   <![CDATA[
    .fil0 {fill:black}
   ]]>
  </style>
 </defs>
 <g id="Слой_x0020_1">
  <metadata id="CorelCorpID_0Corel-Layer"/>
  <g id="_1766810235472">
   <path class="fil0" d="M501.32 1720.86l19.66 -70.31c-2.59,-26.92 27.4,-98.89 37.15,-126.34l25.7 -59.25c4.65,-19.71 40.52,-87.66 50.63,-105.36 10.34,-18.1 19.18,-32.81 29.34,-49.15 8.41,-13.55 19.36,-38.32 30.25,-44.09 16.65,-40.92 137,-182.27 174.23,-219.18l101.43 -90.89c19.52,-16.45 90.46,-74.69 112.28,-82.32 14.65,-19.22 114.38,-75.99 144.69,-93.52 403.33,-233.26 911.82,-275.6 1364.09,-165.78 21.32,3.94 60.04,10.7 72.38,24.6 19.33,-1.22 111.24,30.68 127.56,41.53 12.61,2.32 22.24,6.89 33.14,11.44l29.52 16.37c22.39,0.84 187.74,87.06 196.27,99.29 33.82,14.48 78.7,45.8 107.44,66.91 20.91,15.36 78.76,52.68 92.67,75.35 12,3.2 44.16,32.25 54.97,43.74 16.08,17.1 32.62,29.37 50.59,45.51 16.77,15.07 32.01,35.96 47.71,52.88 84.91,91.46 135.79,160.44 204.41,285 84.78,153.92 166.38,418.16 145.76,636.36 -0.03,12.97 1.1,29.2 -5.44,40.88 10.78,42.93 -31.55,219.84 -46.42,260.65 -49.91,188.67 -159.48,346.78 -278.13,491.66l-199.13 185.49c-37.34,29.64 -70.67,54.72 -111.3,80.96 -32.21,20.81 -86.6,57.21 -124.31,71.24 -15.81,15.52 -114.48,64.23 -135.09,64.91 -5.26,4.54 0.76,0.37 -8.58,6.28 -1.23,0.77 -29.83,15.52 -52.98,21.09 -14.81,9.16 -113.7,43.71 -130.73,42.55 -37.42,33.88 -342.47,73.33 -380.25,76.84 -132.73,12.35 -244.6,8.84 -375.05,-5.56 -13.75,-1.51 -34.69,-2.65 -46.36,-9.58 -35.96,5.56 -207.68,-37.08 -248.42,-49.17 -4.15,8.89 -1.38,6.02 -10.24,10.03 -3.03,12.26 -50.82,66.59 -63.41,79.38 -24.05,24.42 -101.68,101.09 -124.02,106.63 -10.32,21.53 -139.78,98.21 -177.24,107.22 -35.05,23.44 -159.34,60.76 -211.98,66l58.43 -118.51c66.21,-149.32 94.47,-268.82 97.94,-438.63 -15,-5.96 -35.82,-21.95 -50.06,-31.9 -12.14,-8.47 -42.52,-24.46 -48.89,-36.76 -20.67,-5.98 -97.54,-68.84 -114.2,-84.18 -15.75,-14.51 -35.09,-30.25 -51.35,-44.96 -55.46,-50.18 -195.43,-198.63 -221.8,-259.52 -18.62,-18.95 -106.76,-168.84 -107.07,-197.94 -15.37,-11.58 -22.23,-41.13 -28.4,-60.35 -11.6,-21.82 -44.2,-120.6 -42.1,-142.74l-9.97 -23.23c-2.15,-8.65 -3.63,-16.54 -4.74,-25.24 -27.37,-155.31 -36.53,-322.44 -0.58,-476.33zm1447.06 -1315.37l-74.31 8.08 -43.66 4.58c-100.78,14.2 -199.66,37.18 -291.86,62.53 -42.68,11.73 -96.5,29.79 -134.61,44.72 -25.2,9.86 -109.38,48.16 -126.09,48.34 -11.71,14.38 -42.91,26.92 -63.61,32.9l-97.52 55.34c-17.2,9.97 -33.73,19.67 -49.34,29.42 -13.63,8.52 -32.74,23.61 -46.34,26.34 -7.2,12.12 -11.3,11.99 -24.25,20.99l-124.2 94.28c-17.48,13.48 -30.8,29.45 -50.1,38.16 -4.12,8.48 2.98,-1.76 -6.39,10.32l-60.85 56.97c-16.67,17.49 -47.24,57.88 -66.32,67.3 -5.44,14.99 -27.44,38.11 -38.3,50.89 -14.01,16.5 -24.83,30.75 -38.54,48.83 -25.09,33.08 -46.87,69.23 -70.28,101.01 -8.14,13.3 -73.55,128.89 -74.73,129.83 -14.6,50.51 -61.05,125.36 -98.64,268.31 -29.12,110.74 -40.77,204.98 -46.36,321.6 -1.03,55.99 0.02,110.82 5.8,165.63 3.34,31.76 21.66,129.97 19.48,148.64l19.07 65.95 48.74 148.57c54.6,110.71 40.5,103.94 116.79,232.48 54.6,92.01 114.9,151.04 148.74,204.5l120.23 120.55c11.83,12.68 33.67,25.1 37.49,37.17 10.68,6.76 16.45,10.54 25.64,17.79 45.92,36.19 105.45,90.9 156.98,118.19l-4.45 46.56c-3.14,11.03 -1.47,5.92 -4.47,10.92 4.4,33.36 -33.45,138.98 -45.56,170.16 -38.07,97.94 -91.02,200.93 -149.97,286.97l-90.53 127.27c12.75,9.72 141.08,4.22 169.14,4 247.6,-0.72 473.57,-103.9 648.61,-242.94l44.45 -38.54c115.22,-120.85 64.23,-75.35 220.28,-55.59 9.49,1 18.51,1.44 27.45,3.13 2.68,0.5 8.81,1.96 11.36,2.73 10.5,3.21 5.74,1.49 10.8,4.53 24.34,-4.79 85.83,6.51 115.44,8.79 37.86,2.92 79.57,4.18 119,5.24 81.24,2.16 157.85,-6.06 235.98,-10.73l39.31 -3.93c46.91,-8.68 95.06,-14.06 143.21,-23.31 40.1,-7.69 102.81,-27.22 138.42,-30.67 23.19,-11.11 56.56,-17.7 84.54,-26.09 130.73,-39.22 251.21,-99.22 370.54,-162.73 22.68,-12.07 43.55,-25.03 65.41,-39.47l67.51 -41.18 118.53 -91.69c13.16,-11.9 18.72,-14.7 28.55,-23.94 46.07,-43.34 144.74,-136.56 181.86,-185.1 16.4,-21.44 29.75,-35.5 46.98,-57.87 10.74,-13.95 32.59,-49.78 43.49,-56.95 8.24,-20.27 95.99,-149.98 151.98,-284.81 14.3,-34.44 25.32,-75.47 39.33,-106.53 4.06,-27.71 18.61,-65.15 25.68,-95.48 7.95,-34.16 14.6,-67.67 20.24,-102.15 11.08,-67.77 18.78,-152.32 17.02,-223.85l-0.66 -30.57c-0.05,-19.51 -3.44,-38.3 1.08,-55.26 -3.02,-5.08 -1.24,0.75 -4.04,-10.78l-5.78 -56.32c-3.39,-46.08 -14.26,-95.15 -23.13,-138.41 -7.01,-34.2 -31.92,-105.66 -31.5,-130.07 -8.91,-8.21 -8.47,-13.35 -13.09,-26.87 -67.45,-197.7 -173.27,-333.87 -185.36,-364.5l-238.16 -264.54 -165.38 -134.04 -130.37 -83.74c-7.36,-0.59 -128.44,-63.63 -142.74,-72.69 -22.48,-7.22 -41.78,-17.08 -62.58,-25.73 -15.54,-6.46 -49.89,-16.86 -58.95,-28.88 -19.89,-0.18 -116.28,-37.23 -146.12,-45.9 -9.37,-1.91 -17.53,-4.43 -27.35,-7.18 -7.55,-2.11 -7.54,-1.53 -13.56,-4.21 -12.16,-5.39 -5.65,-2 -11.93,-7.69 -14.94,1.86 -168.56,-34.63 -206.57,-40.59 -72.95,-11.42 -150.88,-20.72 -225.66,-23.36 -93.43,-1.52 -178.06,-2.59 -270.94,4.37z"/>
   <path class="fil0" d="M1870.11 1194.87c-13.02,16.6 -71.11,35.41 -114.39,88.76 -25.59,31.54 -37.86,33.19 -68.33,84.17 -9.36,15.66 -6.33,19.12 -20.29,30.08 -1.33,16.39 -31.9,84.6 -39.83,119.74 -10.05,44.54 -15.74,91.26 -18.59,137.55l195.11 0.05 9.11 -69.83c1.79,-16.05 4.5,-44.63 14.19,-58.36 -3.36,-25.17 18.78,-73.97 30.77,-93.17 19.2,-30.75 29.49,-45.06 57.68,-64.94 55.55,-39.18 105,-56.26 190.16,-56.88 78.64,-0.58 146.58,13.27 191.34,55.85 25.5,24.26 90.53,108.95 78.52,163.51 3.17,5.05 1.29,-1.36 4.28,10.74 2.57,10.44 0.1,-2.6 1.41,8.11l-0.55 43.85c-0.25,1.46 -0.57,2.67 -0.86,3.95l-4.28 10.74c3.53,26.73 -32.17,105.87 -47.37,116.46 -12.37,31.35 -53.12,67.04 -73.72,87.57 -124.12,123.68 -110.79,106.05 -213.75,245.82 -8.73,23.65 -18.81,39.73 -26.21,64.93 -7.18,24.45 -13.45,47.65 -18.07,73.62 -5.56,50.05 -14.02,100.15 -11.82,151.67l193.61 0.76c0,-25.57 0,-138.66 20.83,-161.56 -1.83,-41.3 82.52,-131.06 101.87,-154.12 61.89,-73.73 173.45,-152.35 244.94,-261.72 35.17,-53.79 48.38,-125.91 45.56,-204.33l-1.24 -26.2c-1.89,-25.8 -6.5,-49.29 -13.02,-73.79 -4.38,-16.5 -18.87,-53.65 -19.77,-65.65 -0.81,-0.91 -1.72,-2.22 -2.2,-2.92l-5.93 -8.79c-2,-3.27 -3.16,-5.82 -4.75,-8.61l-31.71 -50.88c-16,-23.71 -41.15,-42.42 -52.25,-62.68l-2.87 -2.88c-13.03,-5.61 -54.78,-41.68 -94.43,-64.05 -6.71,-3.79 -10.28,-4.96 -17.45,-8.58l-17.64 -11.1c-18.74,-0.61 -74.87,-21.09 -107.16,-26.25 -208.01,-33.22 -328.03,38.59 -350.9,39.36z"/>
   <polygon class="fil0" points="1983.33,2577.39 1983.33,2642.94 1983.33,2708.49 1984.22,2755.39 2193.1,2755.39 2194.45,2528.89 1983.33,2528.96 "/>
  </g>
 </g>
</svg>
