<?xml version="1.0" encoding="UTF-8"?>
<!DOCTYPE svg PUBLIC "-//W3C//DTD SVG 1.1//EN" "http://www.w3.org/Graphics/SVG/1.1/DTD/svg11.dtd">
<!-- Creator: CorelDRAW 2020 (64-Bit) -->
<svg xmlns="http://www.w3.org/2000/svg" xml:space="preserve" width="180mm" height="36mm" version="1.1" style="shape-rendering:geometricPrecision; text-rendering:geometricPrecision; image-rendering:optimizeQuality; fill-rule:evenodd; clip-rule:evenodd"
viewBox="0 0 18000 3600"
 xmlns:xlink="http://www.w3.org/1999/xlink"
 xmlns:xodm="http://www.corel.com/coreldraw/odm/2003">
 <defs>
  <style type="text/css">
   <![CDATA[
    .fil0 {fill:#BDBDBD}
   ]]>
  </style>
 </defs>
 <g id="Слой_x0020_1">
  <metadata id="CorelCorpID_0Corel-Layer"/>
  <g id="_2674796176528">
   <path class="fil0" d="M904.7 2261.95l-176.36 0 0 -740.74c297.7,0 670.19,25.12 670.19,317.46l0 105.82c0,254.36 -239.38,317.46 -493.83,317.46zm-670.19 -1940.03l0 2222.22c0,171.23 256.64,105.82 705.47,105.82 518.5,0 952.38,-227.35 952.38,-740.74 0,-649.72 -516.74,-776.01 -1164.02,-776.01l0 -529.1 952.38 0c32.83,-140.93 93.37,-238.43 105.82,-388.01l-1235.79 -1.22c-157.03,-2.59 -316.24,-41.66 -316.24,107.04z"/>
   <path class="fil0" d="M5172.78 2297.23c-95.27,0 -97.26,-16.85 -176.37,-35.28 0,-188.11 0.56,-376.31 -0.05,-564.42 -1.12,-344.68 -66.6,-458.5 176.42,-458.5 669.48,0 669.48,1058.2 0,1058.2zm-670.2 -1234.57l0 2433.86 493.83 0 0 -846.56c1338.16,311.75 1690.65,-1798.94 141.09,-1798.94 -186.48,0 -634.92,49.6 -634.92,211.64z"/>
   <path class="fil0" d="M12121.62 392.47c33.77,144.94 94.26,213.83 105.82,352.73 221.36,-18.42 987.66,-410.68 987.66,176.37 0,433.12 -1164.02,625.1 -1164.02,1728.39l1693.12 0c0,-544.88 137.44,-423.28 -1093.48,-423.28 188.67,-356.56 185.43,-344.58 569.26,-630.04 368.15,-273.8 488.94,-402.16 488.94,-851.44 0,-282.18 -315.41,-529.1 -634.92,-529.1 -776.4,0 -489.23,68.47 -952.38,176.37z"/>
   <path class="fil0" d="M14837.67 956.84l0 705.47 -529.1 0 529.1 -705.47zm-1093.47 917.11l0 176.36 1093.47 0 0 599.65 458.55 0 0 -599.65 352.74 0c0,-449.3 60.01,-388 -352.74,-388l0 -1446.21c-487.04,0 -294.18,-41.56 -626.77,360.88l-642.68 838.8c-83.56,109.19 -282.57,294.1 -282.57,458.17z"/>
   <path class="fil0" d="M9405.58 1556.49l-211.64 0c0,-793.63 108.08,-670.2 -458.56,-670.2l0 1763.67 458.56 0 0 -705.47c515.03,0 258.34,60.44 599.64,705.47l458.56 0c-10.65,-127.93 -32.06,-134.55 -81.88,-235.59 -46.77,-94.86 -61.39,-150.03 -106.07,-246.65 -79.55,-172.01 -127.09,-303.49 -270.61,-399.59 251.88,-476.02 126.04,-493.83 423.28,-493.83 0,-393.87 37.62,-423.28 -141.09,-423.28 -579.49,0 -420.18,705.47 -670.19,705.47z"/>
   <path class="fil0" d="M6830.62 2297.23l0 -423.28c273.07,0 195.49,-17.8 423.28,35.27 61.96,265.94 105.74,388.01 -423.28,388.01zm-458.55 -1305.12l0 1657.85c414.46,0 1375.66,102 1375.66,-493.83 0,-241.24 12.4,-442.25 -305.02,-576.81 -141.58,-60.02 -466.69,-127.87 -612.09,-58.11 0,-716.3 90.34,-634.92 -352.73,-634.92 -81.28,0 -105.82,24.55 -105.82,105.82z"/>
   <path class="fil0" d="M10357.96 1697.58l0 211.64c0,550.02 638.18,1045.86 1481.48,599.65 -52.09,-108.55 -83.69,-208.98 -141.1,-317.46 -1049.28,503.47 -1176.82,-952.38 -352.73,-952.38 194.78,0 235.92,70.38 388.01,105.82l0 -388.01c-221.95,-51.71 -652.36,-267.38 -1099.4,135.17 -126.34,113.77 -276.26,373.48 -276.26,605.57z"/>
   <path class="fil0" d="M2774.19 992.11l0 282.19 529.1 0 0 1375.66 458.55 0 0 -1375.66 529.1 0c113.45,-486.96 432.02,-388.01 -1410.93,-388.01 -81.28,0 -105.82,24.55 -105.82,105.82z"/>
   <path class="fil0" d="M2139.27 992.11l0 1657.85c344.36,0 493.83,47.82 493.83,-105.82l0 -1552.03c0,-144 -110.58,-105.82 -388.01,-105.82 -81.28,0 -105.82,24.55 -105.82,105.82z"/>
   <path class="fil0" d="M16989.34 1944.49c-290.43,0 -426.88,20.34 -654.94,-191.62 -685.39,-637.02 270.66,-1837.93 1053.21,-1088.48 549.47,526.22 13.49,1280.1 -398.27,1280.1zm-1058.2 -776.01c0,585.37 425.36,952.38 987.66,952.38 395.41,0 846.56,-417.58 846.56,-811.29 0,-300.94 -12.41,-545.9 -272.51,-785.69 -571.94,-527.29 -1561.71,-126.26 -1561.71,644.6z"/>
   <path class="fil0" d="M7959.37 2649.96l458.55 0 0 -1657.85c0,-81.27 -24.54,-105.82 -105.82,-105.82l-352.73 0 0 1763.67z"/>
   <path class="fil0" d="M2104 321.92c0,490.86 564.37,341.97 564.37,70.55 0,-178.78 -104.68,-263.67 -223.86,-282.19l-105.32 0c-123.79,18.32 -235.19,98.86 -235.19,211.64z"/>
   <path class="fil0" d="M16777.7 815.75l0 529.1c557.52,0 592.15,54.37 634.92,-105.82 -73.92,-106.39 -34.96,-70.55 -458.55,-70.55 0,-443.17 35.47,-420.83 -105.82,-458.55 -59.45,41.31 -70.55,5.05 -70.55,105.82z"/>
  </g>
 </g>
</svg>
