<?xml version="1.0" encoding="UTF-8"?>
<!DOCTYPE svg PUBLIC "-//W3C//DTD SVG 1.1//EN" "http://www.w3.org/Graphics/SVG/1.1/DTD/svg11.dtd">
<!-- Creator: CorelDRAW 2020 (64-Bit) -->
<svg xmlns="http://www.w3.org/2000/svg" xml:space="preserve" width="42.3332mm" height="42.3332mm" version="1.1" style="shape-rendering:geometricPrecision; text-rendering:geometricPrecision; image-rendering:optimizeQuality; fill-rule:evenodd; clip-rule:evenodd"
viewBox="0 0 4233.32 4233.32"
 xmlns:xlink="http://www.w3.org/1999/xlink"
 xmlns:xodm="http://www.corel.com/coreldraw/odm/2003">
 <defs>
  <style type="text/css">
   <![CDATA[
    .fil0 {fill:black}
   ]]>
  </style>
 </defs>
 <g id="Слой_x0020_1">
  <metadata id="CorelCorpID_0Corel-Layer"/>
  <g id="_1765234773504">
   <path class="fil0" d="M2902.5 1341.54c0,78.82 6.93,96.34 80.75,122.57 97.66,34.72 180.96,90.35 257.03,157.34l41.32 43.62c33.97,40.4 68.19,81.27 91.89,129.44 6.08,12.36 12.96,21.67 18.76,35.29 29.4,69.12 53.67,135.47 66.14,211.82 14.81,90.68 101.66,134.02 198.2,133.8 36.89,-0.08 73.81,0.2 110.69,-0.02 33.79,-0.19 64.33,10.65 64.33,48.92l0 401.5c0,84.52 -147.4,30.91 -244.54,56.59 -26.58,7.03 -48.6,17.48 -68.99,31.38 -6.33,4.31 -7.51,5.81 -13,10.16 -47.94,38 -75.12,118.05 -106.97,171l-29.02 45.62c-38.36,52.01 -76.29,107.48 -127.24,148.14l-27.16 24.31c-36.72,31.06 -76.55,57.53 -116.58,84.17 -19.97,13.28 -43.22,23.08 -62.21,38.16 -29.6,23.5 -71.63,77.36 -71.63,129.13 0,29.27 3.3,43.58 12.87,69.48 5.66,15.29 9.99,29.91 16.19,45.58 9.2,23.23 30.13,74.88 30.13,95.98 0,39.65 -27.01,49.27 -56.99,61.4l-173.53 65.82c-22.2,8.97 -68.43,29.78 -91.19,29.78 -45.48,0 -52.42,-41.64 -66.98,-74.57l-38.84 -102.72c-5.76,-17.23 -12.51,-33.6 -20.27,-49.22 -45.93,-92.45 -129.4,-86.73 -218.32,-76.73 -37.69,4.24 -82.52,10.53 -121.44,12.4 -162.76,7.86 -280.17,12.03 -445.03,-20.8 -75.45,-15.02 -135.57,-37.15 -200.87,5.46 -51.19,33.41 -67.2,104.69 -88.35,158.73 -10.68,27.28 -38.48,113.35 -55.22,130.08 -36.06,36.07 -88.52,3.51 -130.42,-12.43 -30.11,-11.46 -192.72,-69.04 -207.87,-80.39 -42.33,-31.73 -15.07,-81.5 0.86,-121.07 8.65,-21.5 16.6,-45.2 25.36,-67.29 41.8,-105.4 68.68,-200.68 -27.68,-286.31l-68.17 -55.38c-57.67,-51.25 -113.29,-107.55 -159.69,-169.74 -105.7,-141.67 -179.42,-298.11 -179.42,-479.45 0,-170.09 12.72,-300.97 67.25,-452.65 14.05,-39.09 28.31,-70.48 46,-105.85 33.15,-66.31 75.49,-124.68 122.77,-180.92l55.43 -57.81c7.88,-7.97 13.09,-10.61 20.64,-17.97 25.72,-25.03 56.37,-45.53 84.97,-66.88 28.71,-21.42 59.74,-42.09 91.14,-60.7 8.73,-5.18 13.48,-8.65 22.2,-13.84 8.89,-5.29 15.81,-8.95 24.44,-14.17 145.03,-87.73 344.03,-150.97 506.41,-178.19 208.66,-34.98 449.55,-31.45 656.7,4.38 29.8,5.15 116.8,26.9 140.95,28.66 24.06,1.75 46.35,-8.76 59.93,-22.22 9.67,-9.59 11.27,-10.17 17.77,-23.4 22.66,-46.14 47.09,-93.72 77.28,-133.77 44.42,-58.94 91.17,-103.2 151.07,-144.9l26.21 -17.55c8.39,-5.54 17.11,-10.28 25.97,-15.2l85.75 -42.94c-1.56,18.81 -21.71,74.3 -27.75,95.79 -29.34,104.44 -52.03,201.8 -52.03,318.58zm-398.93 -185.31c-22.9,0 -243.46,-51.47 -404.07,-51.47 -129.75,0 -217.81,3.38 -344.74,20.72 -77.83,10.63 -159.32,28.64 -228.9,49.07 -34.83,10.22 -70.41,20.84 -103.57,32.83 -34.77,12.57 -66.34,25.54 -99.68,39.3 -32.25,13.31 -63.21,28.48 -94.74,44.24 -74.77,37.39 -148.28,79.55 -215.2,129.68l-79.4 59.58c-6.44,5.13 -12.3,9.4 -18.32,15.14 -7.46,7.11 -12.22,9.59 -19.35,16.68l-52.75 50.2c-43.41,43.19 -102.66,123.64 -134.61,176.81 -26.46,44.01 -49.4,90.59 -70.65,137.82l-20.55 48.94 -42.05 -17.14c-99.07,-49.93 -174.14,-123.11 -174.14,-242.8 0,-28.91 7.8,-70.08 16.48,-91.62 15.22,-37.76 37.97,-69.58 72.06,-90.09 32.67,-19.66 76.18,-29.64 76.18,-88.53 0,-47.2 -40.07,-82.36 -84.93,-82.36 -32.11,0 -81.2,31.53 -100.41,46.3 -166.66,128.13 -187.91,380.36 -63.61,547.52 6.56,8.82 14.36,19.5 21.77,27.13 11.59,11.92 21.49,24.55 34.54,34.96 4.93,3.94 7.15,6.86 11.79,11.37 38.87,37.78 130.31,89.88 183.42,102.26 -0.79,9.57 -4.45,20.91 -6.65,31.95 -23.91,119.49 -26.8,218.04 -26.8,341.24 0,123.38 26.77,219.9 66.54,319.5 21.48,53.77 48.29,105.86 80.16,154.06 51.55,77.97 73.71,105.46 134.45,174.39 23.52,26.68 49.25,54.93 75.97,78.46 27.78,24.46 54.88,50.31 84.41,72.58 13.5,10.18 36.93,19.52 31.77,39.39 -12.13,46.8 -44.14,121.94 -62.98,169.04 -14.66,36.64 -29.97,77.69 -24.71,125.44 1.69,15.38 1.27,20.06 4.53,34.09 15.33,66.02 58.86,122.5 121.15,151.66l53.96 23.25c64.13,22.88 240.08,96.84 291.79,96.84 52.03,0 96.14,-9.56 134.91,-34.95 56.05,-36.71 73.16,-71.57 95.24,-128.68l49.38 -135.93c3.97,-11.61 8.86,-16.82 11.3,-27.3l174.25 31.64c44.52,5.82 94.77,12.22 142.31,12.12 16.87,-0.04 34.15,-0.68 50.79,0.71 57.24,4.79 225.54,-5.62 290.42,-14.68l70.69 -6.64c34.93,-0.61 21.48,-4.11 40.75,49.24 29.72,82.26 58.67,171.68 134.63,220.54 62.04,39.9 140.01,43.02 208,15.91l143.05 -52.56c67.95,-26.22 142.3,-44.83 193.5,-99.89 14.3,-15.39 28.82,-38.91 38.37,-59.43 15.2,-32.67 18.86,-68.69 18.86,-107.26 0,-46.79 -27.85,-100.31 -43.38,-141.92l-18.39 -43.38c9.45,-6.33 21.11,-12.17 31.02,-17.89 52.78,-30.42 102.73,-64.09 149.73,-102.48 19.29,-15.76 35.26,-29.99 52.78,-47.6 9.24,-9.29 16.77,-13.23 25.81,-23.09 5.4,-5.89 6.1,-8.37 11.51,-14.23 60.46,-65.37 92.3,-108.12 143.03,-186.4 19.97,-30.82 61.48,-130.7 84.91,-139.01 22.36,-7.92 141.52,1.7 174.5,-3.09 64.55,-9.37 98.47,-28.57 135.51,-65.23 29.71,-29.41 61.12,-84.22 61.12,-142.21l0 -409.22c0,-84.4 -54.92,-153.11 -109.83,-183.58 -60.34,-33.48 -121.67,-27.47 -193.87,-27.47l-72.07 -2.57c-0.38,-17.44 -9.14,-45.65 -12.62,-62.01 -4.22,-19.82 -10.89,-40.83 -17.29,-59.93 -13.22,-39.5 -27.53,-75.32 -44.72,-109.69 -41.32,-82.61 -90.76,-158.94 -155.12,-225.79l-38.54 -38.68c-28.26,-24.89 -52.86,-47.79 -83.57,-70.85 -15.77,-11.83 -28.82,-20.55 -45.5,-31.71 -8.8,-5.89 -14.8,-9.09 -23.68,-14.93 -39.81,-26.17 -85.09,-43.61 -127.16,-65.87 0,-103.59 20,-199.23 46.33,-293.4 18.67,-66.77 41.64,-126.9 63.4,-191.4 6.22,-18.47 18.96,-44.8 18.96,-65.97 0,-47.42 -39.38,-82.36 -84.93,-82.36 -14.73,0 -89.22,25.04 -103.93,29.9 -34.37,11.36 -63.93,24.22 -95.1,38.74 -17.23,8.03 -29.4,12.46 -44.98,21.94 -61.26,37.25 -126.96,72 -177.45,123.67 -7.41,7.58 -10.01,8.98 -17.89,15.57 -8.57,7.16 -26.3,24.94 -33.13,33.78 -6.53,8.47 -8.77,10.33 -15.93,17.53 -6.91,6.94 -8.69,11.03 -15.4,18.06 -11.6,12.18 -19.04,24.11 -29.76,37.16 -17.9,21.8 -72.48,100.02 -78.98,124.34z"/>
   <path class="fil0" d="M972.22 940.04c0,106.12 21.65,202.14 61.77,277.96 47.8,-25.29 102.96,-48.92 146.7,-72.06 -58.6,-110.75 -55.93,-269.28 -4.31,-380.07 14.96,-32.1 41.74,-76.48 64.25,-103.04 40.81,-48.17 100.94,-95.41 158.08,-119.88 241.31,-103.35 487.8,-1.25 596.16,223.76 22.36,46.43 36.33,106.56 37.65,160.53 0.31,13.03 2.64,12.82 2.64,25.67l157 0c12.22,0 7.83,-16.94 6.25,-26.8 -4.31,-26.94 -2.17,-56.27 -12.96,-102.9 -9.71,-41.96 -21.18,-81.71 -37.91,-116.52 -35.76,-74.38 -63.26,-122.89 -124.61,-184.23 -156.31,-156.32 -356.17,-213.89 -574.37,-169.02 -84.8,17.44 -187.32,67.92 -253,125.33l-41.05 36.17c-6.78,5.63 -9.67,11.95 -16.89,19.14 -20.83,20.71 -35,39.45 -52.56,63.26 -68.58,92.95 -112.84,226.28 -112.84,342.7z"/>
   <path class="fil0" d="M2897.35 2165.13c0,66.24 30.06,120.19 84.02,147.62 167,84.88 319.91,-146.82 165.69,-266.07 -97.73,-75.57 -249.71,-3.87 -249.71,118.45z"/>
  </g>
 </g>
</svg>
