<?xml version="1.0" encoding="UTF-8"?>
<!DOCTYPE svg PUBLIC "-//W3C//DTD SVG 1.1//EN" "http://www.w3.org/Graphics/SVG/1.1/DTD/svg11.dtd">
<!-- Creator: CorelDRAW 2020 (64-Bit) -->
<svg xmlns="http://www.w3.org/2000/svg" xml:space="preserve" width="42.3332mm" height="42.3332mm" version="1.1" style="shape-rendering:geometricPrecision; text-rendering:geometricPrecision; image-rendering:optimizeQuality; fill-rule:evenodd; clip-rule:evenodd"
viewBox="0 0 4233.32 4233.32"
 xmlns:xlink="http://www.w3.org/1999/xlink"
 xmlns:xodm="http://www.corel.com/coreldraw/odm/2003">
 <defs>
  <style type="text/css">
   <![CDATA[
    .fil0 {fill:black}
   ]]>
  </style>
 </defs>
 <g id="Слой_x0020_1">
  <metadata id="CorelCorpID_0Corel-Layer"/>
  <path class="fil0" d="M2710.13 1531.89c3.82,64.98 13.95,84.37 34.43,138.07 12.77,14.31 14.41,22.08 28.2,39.4 19.62,13.71 20.65,22.01 38.82,36.77 8.48,6.89 34.9,22.69 47.06,28.99 33.72,17.48 72.71,29.15 111.66,33.82 108.2,5.31 841.01,-9.32 868,8.87l30.67 3.03c61.69,20.32 101.86,69.38 121.52,132.52 40.66,74.66 1.89,145.82 -49.67,176.66 -68.29,40.84 -147.68,12.81 -170.41,85.72 11.14,101.86 92.14,43.37 166.35,103.41 42.8,34.61 85.01,103.29 62.53,178.1 -11.3,55.87 -65.34,124.84 -116.51,123.69 -8.7,6.22 0.85,3.62 -19.38,10.26 -22.96,7.51 -132.39,5 -161.39,5.48l-12.28 -1.98c-19.51,24.73 -67.66,66.5 -15.27,105.57 36.68,27.35 142.59,-2.61 197.83,119.87 30.05,66.64 5.41,123.8 3.42,118.71 -0.42,-1.05 -1.98,3.21 -3.09,4.72 2.38,45.25 -51.65,89.91 -89.56,106.86 -51.92,23.2 -123.1,16.63 -185.06,16.58 -79.34,-0.07 -133.18,-0.95 -117.42,88.88 39.28,32.31 17.67,18.01 78.43,33.06 72.12,17.86 119.89,103.85 72.97,172.96 -1.45,2.14 -11.31,13.85 -12.53,14.93 -15.51,13.75 -2.73,5.13 -16.14,9.67 -23.2,42.01 -89.12,33.98 -142.51,34.05l-138.92 0 -137.2 0 -138.91 0 -137.2 0 -138.92 0 -137.2 -0.48 -138.91 -8.1c-44.58,-6.8 -114.14,-10.53 -142.63,-38.02 -45.71,0.62 -101.07,-40.68 -138.9,-60.36 -38.32,-19.94 -94.59,-43.7 -132.97,-65.41 -84.96,-29.63 -372.97,-139.9 -295.49,41.95 11.31,2.52 4.09,-2.79 20.34,8.43 27.59,6.16 53.61,11.41 81.69,16.66 25.82,4.83 51.02,5.73 70.65,22.37 45.83,-2.13 230.86,90.22 259.12,114.63 158.59,57.28 197.35,79.96 389.06,84.84 133.16,3.39 842.23,7.82 939.13,-0.21 126.91,-10.52 228.75,-113.15 225.04,-249.35 -4.23,-42.63 -17.44,-69.95 -30.63,-102.95 126.08,-30.65 195.15,-71.63 242.96,-177.8 48.68,-108.12 10.86,-242.31 -47.7,-309.98 131.99,-83.81 34.23,-15.13 132.37,-101.13 63.51,-108.45 84.38,-212.48 11.87,-332.85 -22.38,-37.16 -41.26,-46.3 -64.9,-74.16l20.73 -12.18c12.43,-24.69 86.46,-64.96 89.32,-187.1 1.36,-58.45 -16.29,-119.35 -43.84,-169.63 -6.03,-11.02 -8.51,-13.19 -13.12,-21.52 -13.24,-23.92 -5.85,-3.01 -8.83,-22l-16.95 -14.29c-6.29,-5.57 -5.36,-4.5 -10.98,-10.12 -11.96,-12 -10.28,-9.43 -18.03,-22.29 -45.21,-28.25 -59.39,-54.04 -130.6,-70.16 -100.64,-22.78 -852.41,15.06 -947.2,-19.58 -158.44,-57.89 -51.89,-200.47 -163.4,-221.34 -43.08,6.69 -59.17,26.61 -59.52,73.46z"/>
  <path class="fil0" d="M470.34 1853.21l821.03 0.06 1.35 1648.24 -820.47 1.13c-6.5,-22.09 -13.24,-1582.53 -1.91,-1649.43zm-73.94 -113.49c-60.14,22.31 -46.35,66.03 -46.6,138.32l0.47 1290.85c0,121.94 -1.26,244.29 -0.71,366.18 0.52,113.93 78.27,85.42 290.59,85.6 92.79,0.08 697.48,7.94 735.16,-6.45 45.55,-17.4 35.64,-82.91 35.84,-141.6l-0.68 -1290.84c0.01,-121.53 2.43,-244.84 0.88,-366.16 -1.38,-109.79 -98.14,-79.69 -288,-80.78 -87.1,-0.51 -696.18,-6.54 -726.95,4.88z"/>
  <path class="fil0" d="M2235.91 608.34l-1.14 137.2 -0.63 69.49c-0.34,42.33 -1.1,85.62 -3.23,127.88 -0.98,19.5 -2.05,39.14 -3.06,58.67 -0.37,7.3 -0.91,20.4 -2,27.2 -3.22,20.17 1.11,7.79 -6.6,22.01 6.53,27.01 -0.34,60.33 -5.75,88.68l-31.75 158.3c-41.17,141.7 -116.83,233.06 -194.12,305.52 -61.51,57.66 -188.32,175.92 -284.69,213.28 -62.3,34.76 -80.86,21.98 -136.53,42.01 -49.15,17.68 -50.72,90.88 1.07,107.27 83.84,26.55 219.81,-61.77 273.35,-89.42 13.95,-13.32 39.66,-28.05 59.29,-42.91 114.33,-86.55 245.02,-202.04 317.58,-324.83 8.98,-15.19 29.59,-56.5 37.64,-65.56l56.86 -155 17.61 -128.41c14.43,-103.36 18.64,-204.49 21.38,-310.21 1.44,-55.4 1.1,-110.29 1.1,-165.67 -0.01,-62.39 -10.21,-109.85 48.06,-123.56 40.52,-8.32 113.94,4.7 152.63,19.31 172.9,65.29 152.52,231.41 152.85,401.08l-0.23 552.56c0.71,72.22 25.12,89.76 93.42,76.98 22.88,-32.74 25.39,-43.43 25.12,-97.99 -1.04,-206.6 8.54,-612.7 -8.57,-773.12 -30.62,-95.18 -30.67,-126.12 -94.12,-189.88 -50.65,-50.92 -99.1,-79.48 -190.34,-98.45 -50.15,-8.85 -91.74,-12.31 -144.49,-9.61 -93.32,19.14 -140.9,65.52 -150.71,167.18z"/>
 </g>
</svg>
